<svg viewBox="0 0 723 350" fill="none" xmlns="http://www.w3.org/2000/svg">
<g clip-path="url(#clip0_7_139)">
<rect width="723" height="350" fill="white"/>
<rect width="723" height="350" fill="#F4F4F5"/>
<path d="M679.519 0.266359L679.519 31.4669C679.519 36.7802 677.405 41.8751 673.643 45.6274L492.395 226.405C488.633 230.158 486.519 235.253 486.519 240.566L486.519 282.487C486.519 287.491 484.643 292.313 481.262 296.001L431.519 350.266" stroke="#FAFAFA" stroke-width="1.5" stroke-linecap="round"/>
<mask id="path-3-inside-1_7_139" fill="white">
<path d="M687.224 14C687.224 12.3431 685.881 11 684.224 11H675.224C673.567 11 672.224 12.3431 672.224 14V23C672.224 24.6569 673.567 26 675.224 26H684.224C685.881 26 687.224 24.6569 687.224 23V14Z"/>
</mask>
<path d="M687.224 14C687.224 12.3431 685.881 11 684.224 11H675.224C673.567 11 672.224 12.3431 672.224 14V23C672.224 24.6569 673.567 26 675.224 26H684.224C685.881 26 687.224 24.6569 687.224 23V14Z" fill="#F4F4F5"/>
<path d="M684.224 12.5H675.224V9.5H684.224V12.5ZM673.724 14V23H670.724V14H673.724ZM675.224 24.5H684.224V27.5H675.224V24.5ZM685.724 23V14H688.724V23H685.724ZM684.224 24.5C685.053 24.5 685.724 23.8284 685.724 23H688.724C688.724 25.4853 686.709 27.5 684.224 27.5V24.5ZM673.724 23C673.724 23.8284 674.396 24.5 675.224 24.5V27.5C672.739 27.5 670.724 25.4853 670.724 23H673.724ZM675.224 12.5C674.396 12.5 673.724 13.1716 673.724 14H670.724C670.724 11.5147 672.739 9.5 675.224 9.5V12.5ZM684.224 9.5C686.709 9.5 688.724 11.5147 688.724 14H685.724C685.724 13.1716 685.053 12.5 684.224 12.5V9.5Z" fill="#FAFAFA" mask="url(#path-3-inside-1_7_139)"/>
<circle cx="4.5" cy="4.5" r="3.75" transform="matrix(-1 0 0 1 657.224 62)" fill="#F4F4F5" stroke="#FAFAFA" stroke-width="1.5"/>
<path d="M616.474 97.5166L615.25 102.566C615.023 103.502 615.894 104.332 616.817 104.06L621.803 102.595C622.726 102.324 623.009 101.155 622.313 100.491L618.552 96.9063C617.855 96.2423 616.701 96.5814 616.474 97.5166Z" fill="#F4F4F5" stroke="#FAFAFA" stroke-width="1.5"/>
<circle cx="7.5" cy="7.5" r="6.75" transform="matrix(-1 0 0 1 593.224 126)" fill="#F4F4F5" stroke="#FAFAFA" stroke-width="1.5"/>
<mask id="path-8-inside-2_7_139" fill="white">
<path d="M551.274 164.414C550.493 163.633 549.227 163.633 548.446 164.414L544.91 167.95C544.129 168.731 544.129 169.997 544.91 170.778L548.446 174.314C549.227 175.095 550.493 175.095 551.274 174.314L554.81 170.778C555.591 169.997 555.591 168.731 554.81 167.95L551.274 164.414Z"/>
</mask>
<path d="M551.274 164.414C550.493 163.633 549.227 163.633 548.446 164.414L544.91 167.95C544.129 168.731 544.129 169.997 544.91 170.778L548.446 174.314C549.227 175.095 550.493 175.095 551.274 174.314L554.81 170.778C555.591 169.997 555.591 168.731 554.81 167.95L551.274 164.414Z" fill="#F4F4F5"/>
<path d="M549.507 165.475L545.971 169.01L543.85 166.889L547.385 163.354L549.507 165.475ZM545.971 169.718L549.507 173.253L547.385 175.374L543.85 171.839L545.971 169.718ZM550.214 173.253L553.749 169.718L555.871 171.839L552.335 175.374L550.214 173.253ZM553.749 169.01L550.214 165.475L552.335 163.354L555.871 166.889L553.749 169.01ZM553.749 169.718C553.945 169.522 553.945 169.206 553.749 169.01L555.871 166.889C557.237 168.256 557.237 170.472 555.871 171.839L553.749 169.718ZM549.507 173.253C549.702 173.448 550.019 173.448 550.214 173.253L552.335 175.374C550.968 176.741 548.752 176.741 547.385 175.374L549.507 173.253ZM545.971 169.01C545.776 169.206 545.776 169.522 545.971 169.718L543.85 171.839C542.483 170.472 542.483 168.256 543.85 166.889L545.971 169.01ZM547.385 163.354C548.752 161.987 550.968 161.987 552.335 163.354L550.214 165.475C550.019 165.28 549.702 165.28 549.507 165.475L547.385 163.354Z" fill="#FAFAFA" mask="url(#path-8-inside-2_7_139)"/>
<circle cx="4.5" cy="4.5" r="3.75" transform="matrix(-1 0 0 1 525.224 194)" fill="#F4F4F5" stroke="#FAFAFA" stroke-width="1.5"/>
<path d="M482.723 229.413L485.551 240.311C485.793 241.242 486.952 241.562 487.638 240.887L495.661 232.99C496.347 232.315 496.045 231.15 495.117 230.894L484.266 227.894C483.339 227.638 482.481 228.482 482.723 229.413Z" fill="#F4F4F5" stroke="#FAFAFA" stroke-width="1.5"/>
<circle cx="4.5" cy="4.5" r="3.75" transform="matrix(-1 0 0 1 491.224 269)" fill="#F4F4F5" stroke="#FAFAFA" stroke-width="1.5"/>
<path d="M469.054 303.883L468.11 308.993C467.936 309.939 468.851 310.72 469.758 310.398L474.655 308.661C475.562 308.339 475.78 307.156 475.048 306.532L471.095 303.159C470.363 302.535 469.229 302.937 469.054 303.883Z" fill="#F4F4F5" stroke="#FAFAFA" stroke-width="1.5"/>
<mask id="path-14-inside-3_7_139" fill="white">
<path d="M449.103 341.728C450.274 340.556 450.274 338.657 449.103 337.485L442.739 331.121C441.567 329.95 439.668 329.95 438.496 331.121L432.132 337.485C430.961 338.657 430.961 340.556 432.132 341.728L438.496 348.092C439.668 349.263 441.567 349.263 442.739 348.092L449.103 341.728Z"/>
</mask>
<path d="M449.103 341.728C450.274 340.556 450.274 338.657 449.103 337.485L442.739 331.121C441.567 329.95 439.668 329.95 438.496 331.121L432.132 337.485C430.961 338.657 430.961 340.556 432.132 341.728L438.496 348.092C439.668 349.263 441.567 349.263 442.739 348.092L449.103 341.728Z" fill="#F4F4F5"/>
<path d="M448.042 338.546L441.678 332.182L443.8 330.061L450.164 336.425L448.042 338.546ZM439.557 332.182L433.193 338.546L431.072 336.425L437.436 330.061L439.557 332.182ZM433.193 340.667L439.557 347.031L437.436 349.153L431.072 342.789L433.193 340.667ZM441.678 347.031L448.042 340.667L450.164 342.789L443.8 349.153L441.678 347.031ZM439.557 347.031C440.143 347.617 441.092 347.617 441.678 347.031L443.8 349.153C442.042 350.91 439.193 350.91 437.436 349.153L439.557 347.031ZM433.193 338.546C432.607 339.132 432.607 340.081 433.193 340.667L431.072 342.789C429.314 341.031 429.314 338.182 431.072 336.425L433.193 338.546ZM441.678 332.182C441.092 331.596 440.143 331.596 439.557 332.182L437.436 330.061C439.193 328.303 442.042 328.303 443.8 330.061L441.678 332.182ZM450.164 336.425C451.921 338.182 451.921 341.031 450.164 342.789L448.042 340.667C448.628 340.081 448.628 339.132 448.042 338.546L450.164 336.425Z" fill="#FAFAFA" mask="url(#path-14-inside-3_7_139)"/>
<path d="M361.519 280.266L391.693 280.266C397.022 280.266 402.131 278.14 405.886 274.358L505.417 174.115C509.137 170.369 511.224 165.303 511.224 160.024L511.224 30.6287C511.224 25.2782 513.368 20.1508 517.177 16.3927L533.519 0.266334" stroke="#FAFAFA" stroke-width="1.5"/>
<circle cx="4.5" cy="4.5" r="3.75" transform="matrix(-1 0 0 1 516.224 24)" fill="#F4F4F5" stroke="#FAFAFA" stroke-width="1.5"/>
<path d="M512.307 111.625L514.905 107.125C515.386 106.292 514.785 105.25 513.822 105.25H508.626C507.664 105.25 507.062 106.292 507.544 107.125L510.142 111.625C510.623 112.458 511.826 112.458 512.307 111.625Z" fill="#F4F4F5" stroke="#FAFAFA" stroke-width="1.5"/>
<mask id="path-19-inside-4_7_139" fill="white">
<path d="M515.724 141C515.724 139.895 514.829 139 513.724 139H508.724C507.62 139 506.724 139.895 506.724 141V146C506.724 147.105 507.62 148 508.724 148H513.724C514.829 148 515.724 147.105 515.724 146V141Z"/>
</mask>
<path d="M515.724 141C515.724 139.895 514.829 139 513.724 139H508.724C507.62 139 506.724 139.895 506.724 141V146C506.724 147.105 507.62 148 508.724 148H513.724C514.829 148 515.724 147.105 515.724 146V141Z" fill="#F4F4F5"/>
<path d="M513.724 140.5H508.724V137.5H513.724V140.5ZM508.224 141V146H505.224V141H508.224ZM508.724 146.5H513.724V149.5H508.724V146.5ZM514.224 146V141H517.224V146H514.224ZM513.724 146.5C514 146.5 514.224 146.276 514.224 146H517.224C517.224 147.933 515.657 149.5 513.724 149.5V146.5ZM508.224 146C508.224 146.276 508.448 146.5 508.724 146.5V149.5C506.791 149.5 505.224 147.933 505.224 146H508.224ZM508.724 140.5C508.448 140.5 508.224 140.724 508.224 141H505.224C505.224 139.067 506.791 137.5 508.724 137.5V140.5ZM513.724 137.5C515.657 137.5 517.224 139.067 517.224 141H514.224C514.224 140.724 514 140.5 513.724 140.5V137.5Z" fill="#FAFAFA" mask="url(#path-19-inside-4_7_139)"/>
<circle cx="7.5" cy="7.5" r="6.75" transform="matrix(-1 0 0 1 507.224 172)" fill="#F4F4F5" stroke="#FAFAFA" stroke-width="1.5"/>
<circle cx="4.5" cy="4.5" r="3.75" transform="matrix(-1 0 0 1 473.224 206)" fill="#F4F4F5" stroke="#FAFAFA" stroke-width="1.5"/>
<path d="M441.395 233.585L440.222 238.647C440.005 239.584 440.884 240.405 441.804 240.125L446.774 238.61C447.695 238.329 447.967 237.158 447.263 236.501L443.466 232.953C442.763 232.297 441.613 232.647 441.395 233.585Z" fill="#F4F4F5" stroke="#FAFAFA" stroke-width="1.5"/>
<mask id="path-24-inside-5_7_139" fill="white">
<path d="M519.224 62C519.224 60.3432 517.881 59 516.224 59H507.224C505.567 59 504.224 60.3432 504.224 62V71C504.224 72.6569 505.567 74 507.224 74H516.224C517.881 74 519.224 72.6569 519.224 71V62Z"/>
</mask>
<path d="M519.224 62C519.224 60.3432 517.881 59 516.224 59H507.224C505.567 59 504.224 60.3432 504.224 62V71C504.224 72.6569 505.567 74 507.224 74H516.224C517.881 74 519.224 72.6569 519.224 71V62Z" fill="#F4F4F5"/>
<path d="M516.224 60.5H507.224V57.5H516.224V60.5ZM505.724 62V71H502.724V62H505.724ZM507.224 72.5H516.224V75.5H507.224V72.5ZM517.724 71V62H520.724V71H517.724ZM516.224 72.5C517.053 72.5 517.724 71.8284 517.724 71H520.724C520.724 73.4853 518.709 75.5 516.224 75.5V72.5ZM505.724 71C505.724 71.8284 506.396 72.5 507.224 72.5V75.5C504.739 75.5 502.724 73.4853 502.724 71H505.724ZM507.224 60.5C506.396 60.5 505.724 61.1716 505.724 62H502.724C502.724 59.5147 504.739 57.5 507.224 57.5V60.5ZM516.224 57.5C518.709 57.5 520.724 59.5147 520.724 62H517.724C517.724 61.1716 517.053 60.5 516.224 60.5V57.5Z" fill="#FAFAFA" mask="url(#path-24-inside-5_7_139)"/>
<mask id="path-26-inside-6_7_139" fill="white">
<path d="M421.103 269.728C422.274 268.556 422.274 266.657 421.103 265.485L414.739 259.121C413.567 257.95 411.668 257.95 410.496 259.121L404.132 265.485C402.961 266.657 402.961 268.556 404.132 269.728L410.496 276.092C411.668 277.263 413.567 277.263 414.739 276.092L421.103 269.728Z"/>
</mask>
<path d="M421.103 269.728C422.274 268.556 422.274 266.657 421.103 265.485L414.739 259.121C413.567 257.95 411.668 257.95 410.496 259.121L404.132 265.485C402.961 266.657 402.961 268.556 404.132 269.728L410.496 276.092C411.668 277.263 413.567 277.263 414.739 276.092L421.103 269.728Z" fill="#F4F4F5"/>
<path d="M420.042 266.546L413.678 260.182L415.8 258.061L422.164 264.425L420.042 266.546ZM411.557 260.182L405.193 266.546L403.072 264.425L409.436 258.061L411.557 260.182ZM405.193 268.667L411.557 275.031L409.436 277.153L403.072 270.789L405.193 268.667ZM413.678 275.031L420.042 268.667L422.164 270.789L415.8 277.153L413.678 275.031ZM411.557 275.031C412.143 275.617 413.092 275.617 413.678 275.031L415.8 277.153C414.042 278.91 411.193 278.91 409.436 277.153L411.557 275.031ZM405.193 266.546C404.607 267.132 404.607 268.081 405.193 268.667L403.072 270.789C401.314 269.031 401.314 266.182 403.072 264.425L405.193 266.546ZM413.678 260.182C413.092 259.596 412.143 259.596 411.557 260.182L409.436 258.061C411.193 256.303 414.042 256.303 415.8 258.061L413.678 260.182ZM422.164 264.425C423.921 266.182 423.921 269.031 422.164 270.789L420.042 268.667C420.628 268.081 420.628 267.132 420.042 266.546L422.164 264.425Z" fill="#FAFAFA" mask="url(#path-26-inside-6_7_139)"/>
<mask id="path-28-inside-7_7_139" fill="white">
<path d="M372.224 278C372.224 276.895 371.329 276 370.224 276H365.224C364.12 276 363.224 276.895 363.224 278V283C363.224 284.105 364.12 285 365.224 285H370.224C371.329 285 372.224 284.105 372.224 283V278Z"/>
</mask>
<path d="M372.224 278C372.224 276.895 371.329 276 370.224 276H365.224C364.12 276 363.224 276.895 363.224 278V283C363.224 284.105 364.12 285 365.224 285H370.224C371.329 285 372.224 284.105 372.224 283V278Z" fill="#F4F4F5"/>
<path d="M370.224 277.5H365.224V274.5H370.224V277.5ZM364.724 278V283H361.724V278H364.724ZM365.224 283.5H370.224V286.5H365.224V283.5ZM370.724 283V278H373.724V283H370.724ZM370.224 283.5C370.5 283.5 370.724 283.276 370.724 283H373.724C373.724 284.933 372.157 286.5 370.224 286.5V283.5ZM364.724 283C364.724 283.276 364.948 283.5 365.224 283.5V286.5C363.291 286.5 361.724 284.933 361.724 283H364.724ZM365.224 277.5C364.948 277.5 364.724 277.724 364.724 278H361.724C361.724 276.067 363.291 274.5 365.224 274.5V277.5ZM370.224 274.5C372.157 274.5 373.724 276.067 373.724 278H370.724C370.724 277.724 370.5 277.5 370.224 277.5V274.5Z" fill="#FAFAFA" mask="url(#path-28-inside-7_7_139)"/>
<path d="M723.519 24.7664L603.349 145.413C599.616 149.162 597.519 154.237 597.519 159.527L597.519 235.261C597.519 240.4 595.541 245.341 591.996 249.061L495.519 350.266" stroke="#FAFAFA" stroke-width="1.5"/>
<circle cx="7.5" cy="7.5" r="6.75" transform="matrix(-1 0 0 1 694.224 54)" fill="#F4F4F5" stroke="#FAFAFA" stroke-width="1.5"/>
<path d="M615.289 127.677L614.185 132.754C613.981 133.695 614.871 134.504 615.788 134.211L620.737 132.628C621.653 132.334 621.909 131.159 621.197 130.512L617.351 127.017C616.639 126.37 615.493 126.737 615.289 127.677Z" fill="#F4F4F5" stroke="#FAFAFA" stroke-width="1.5"/>
<mask id="path-33-inside-8_7_139" fill="white">
<path d="M656.81 98.7782C657.591 97.9971 657.591 96.7308 656.81 95.9498L653.274 92.4142C652.493 91.6332 651.227 91.6332 650.446 92.4142L646.91 95.9498C646.129 96.7308 646.129 97.9971 646.91 98.7782L650.446 102.314C651.227 103.095 652.493 103.095 653.274 102.314L656.81 98.7782Z"/>
</mask>
<path d="M656.81 98.7782C657.591 97.9971 657.591 96.7308 656.81 95.9498L653.274 92.4142C652.493 91.6332 651.227 91.6332 650.446 92.4142L646.91 95.9498C646.129 96.7308 646.129 97.9971 646.91 98.7782L650.446 102.314C651.227 103.095 652.493 103.095 653.274 102.314L656.81 98.7782Z" fill="#F4F4F5"/>
<path d="M655.749 97.0104L652.214 93.4749L654.335 91.3536L657.871 94.8891L655.749 97.0104ZM651.507 93.4749L647.971 97.0104L645.85 94.8891L649.385 91.3536L651.507 93.4749ZM647.971 97.7175L651.507 101.253L649.385 103.374L645.85 99.8388L647.971 97.7175ZM652.214 101.253L655.749 97.7175L657.871 99.8388L654.335 103.374L652.214 101.253ZM651.507 101.253C651.702 101.448 652.019 101.448 652.214 101.253L654.335 103.374C652.968 104.741 650.752 104.741 649.385 103.374L651.507 101.253ZM647.971 97.0104C647.776 97.2057 647.776 97.5223 647.971 97.7175L645.85 99.8388C644.483 98.472 644.483 96.2559 645.85 94.8891L647.971 97.0104ZM652.214 93.4749C652.019 93.2796 651.702 93.2796 651.507 93.4749L649.385 91.3536C650.752 89.9867 652.968 89.9867 654.335 91.3536L652.214 93.4749ZM657.871 94.8891C659.237 96.2559 659.237 98.472 657.871 99.8388L655.749 97.7175C655.945 97.5223 655.945 97.2057 655.749 97.0104L657.871 94.8891Z" fill="#FAFAFA" mask="url(#path-33-inside-8_7_139)"/>
<mask id="path-35-inside-9_7_139" fill="white">
<path d="M605.224 166C605.224 164.343 603.881 163 602.224 163H593.224C591.567 163 590.224 164.343 590.224 166V175C590.224 176.657 591.567 178 593.224 178H602.224C603.881 178 605.224 176.657 605.224 175V166Z"/>
</mask>
<path d="M605.224 166C605.224 164.343 603.881 163 602.224 163H593.224C591.567 163 590.224 164.343 590.224 166V175C590.224 176.657 591.567 178 593.224 178H602.224C603.881 178 605.224 176.657 605.224 175V166Z" fill="#F4F4F5"/>
<path d="M602.224 164.5H593.224V161.5H602.224V164.5ZM591.724 166V175H588.724V166H591.724ZM593.224 176.5H602.224V179.5H593.224V176.5ZM603.724 175V166H606.724V175H603.724ZM602.224 176.5C603.053 176.5 603.724 175.828 603.724 175H606.724C606.724 177.485 604.709 179.5 602.224 179.5V176.5ZM591.724 175C591.724 175.828 592.396 176.5 593.224 176.5V179.5C590.739 179.5 588.724 177.485 588.724 175H591.724ZM593.224 164.5C592.396 164.5 591.724 165.172 591.724 166H588.724C588.724 163.515 590.739 161.5 593.224 161.5V164.5ZM602.224 161.5C604.709 161.5 606.724 163.515 606.724 166H603.724C603.724 165.172 603.053 164.5 602.224 164.5V161.5Z" fill="#FAFAFA" mask="url(#path-35-inside-9_7_139)"/>
<mask id="path-37-inside-10_7_139" fill="white">
<path d="M602.224 215C602.224 213.895 601.329 213 600.224 213H595.224C594.12 213 593.224 213.895 593.224 215V220C593.224 221.105 594.12 222 595.224 222H600.224C601.329 222 602.224 221.105 602.224 220V215Z"/>
</mask>
<path d="M602.224 215C602.224 213.895 601.329 213 600.224 213H595.224C594.12 213 593.224 213.895 593.224 215V220C593.224 221.105 594.12 222 595.224 222H600.224C601.329 222 602.224 221.105 602.224 220V215Z" fill="#F4F4F5"/>
<path d="M600.224 214.5H595.224V211.5H600.224V214.5ZM594.724 215V220H591.724V215H594.724ZM595.224 220.5H600.224V223.5H595.224V220.5ZM600.724 220V215H603.724V220H600.724ZM600.224 220.5C600.5 220.5 600.724 220.276 600.724 220H603.724C603.724 221.933 602.157 223.5 600.224 223.5V220.5ZM594.724 220C594.724 220.276 594.948 220.5 595.224 220.5V223.5C593.291 223.5 591.724 221.933 591.724 220H594.724ZM595.224 214.5C594.948 214.5 594.724 214.724 594.724 215H591.724C591.724 213.067 593.291 211.5 595.224 211.5V214.5ZM600.224 211.5C602.157 211.5 603.724 213.067 603.724 215H600.724C600.724 214.724 600.5 214.5 600.224 214.5V211.5Z" fill="#FAFAFA" mask="url(#path-37-inside-10_7_139)"/>
<circle cx="4.5" cy="4.5" r="3.75" transform="matrix(-1 0 0 1 592.224 249)" fill="#F4F4F5" stroke="#FAFAFA" stroke-width="1.5"/>
<path d="M557.325 276.368L554.528 287.274C554.289 288.206 555.149 289.047 556.075 288.788L566.918 285.757C567.845 285.498 568.144 284.333 567.456 283.66L559.41 275.785C558.722 275.112 557.564 275.436 557.325 276.368Z" fill="#F4F4F5" stroke="#FAFAFA" stroke-width="1.5"/>
<mask id="path-41-inside-11_7_139" fill="white">
<path d="M532.81 317.778C533.591 316.997 533.591 315.731 532.81 314.95L529.274 311.414C528.493 310.633 527.227 310.633 526.446 311.414L522.91 314.95C522.129 315.731 522.129 316.997 522.91 317.778L526.446 321.314C527.227 322.095 528.493 322.095 529.274 321.314L532.81 317.778Z"/>
</mask>
<path d="M532.81 317.778C533.591 316.997 533.591 315.731 532.81 314.95L529.274 311.414C528.493 310.633 527.227 310.633 526.446 311.414L522.91 314.95C522.129 315.731 522.129 316.997 522.91 317.778L526.446 321.314C527.227 322.095 528.493 322.095 529.274 321.314L532.81 317.778Z" fill="#F4F4F5"/>
<path d="M531.749 316.01L528.214 312.475L530.335 310.354L533.871 313.889L531.749 316.01ZM527.507 312.475L523.971 316.01L521.85 313.889L525.385 310.354L527.507 312.475ZM523.971 316.718L527.507 320.253L525.385 322.374L521.85 318.839L523.971 316.718ZM528.214 320.253L531.749 316.718L533.871 318.839L530.335 322.374L528.214 320.253ZM527.507 320.253C527.702 320.448 528.019 320.448 528.214 320.253L530.335 322.374C528.968 323.741 526.752 323.741 525.385 322.374L527.507 320.253ZM523.971 316.01C523.776 316.206 523.776 316.522 523.971 316.718L521.85 318.839C520.483 317.472 520.483 315.256 521.85 313.889L523.971 316.01ZM528.214 312.475C528.019 312.28 527.702 312.28 527.507 312.475L525.385 310.354C526.752 308.987 528.968 308.987 530.335 310.354L528.214 312.475ZM533.871 313.889C535.237 315.256 535.237 317.472 533.871 318.839L531.749 316.718C531.945 316.522 531.945 316.206 531.749 316.01L533.871 313.889Z" fill="#FAFAFA" mask="url(#path-41-inside-11_7_139)"/>
<path d="M723.019 140.766L644.294 220.423C640.594 224.167 638.519 229.218 638.519 234.482L638.519 316.864C638.519 322.238 636.356 327.386 632.518 331.148L613.519 349.766" stroke="#FAFAFA" stroke-width="1.5" stroke-linecap="round"/>
<circle cx="7.5" cy="7.5" r="6.75" transform="matrix(-1 0 0 1 646.224 238)" fill="#F4F4F5" stroke="#FAFAFA" stroke-width="1.5"/>
<mask id="path-45-inside-12_7_139" fill="white">
<path d="M643.224 285C643.224 283.895 642.329 283 641.224 283H636.224C635.12 283 634.224 283.895 634.224 285V290C634.224 291.105 635.12 292 636.224 292H641.224C642.329 292 643.224 291.105 643.224 290V285Z"/>
</mask>
<path d="M643.224 285C643.224 283.895 642.329 283 641.224 283H636.224C635.12 283 634.224 283.895 634.224 285V290C634.224 291.105 635.12 292 636.224 292H641.224C642.329 292 643.224 291.105 643.224 290V285Z" fill="#F4F4F5"/>
<path d="M641.224 284.5H636.224V281.5H641.224V284.5ZM635.724 285V290H632.724V285H635.724ZM636.224 290.5H641.224V293.5H636.224V290.5ZM641.724 290V285H644.724V290H641.724ZM641.224 290.5C641.5 290.5 641.724 290.276 641.724 290H644.724C644.724 291.933 643.157 293.5 641.224 293.5V290.5ZM635.724 290C635.724 290.276 635.948 290.5 636.224 290.5V293.5C634.291 293.5 632.724 291.933 632.724 290H635.724ZM636.224 284.5C635.948 284.5 635.724 284.724 635.724 285H632.724C632.724 283.067 634.291 281.5 636.224 281.5V284.5ZM641.224 281.5C643.157 281.5 644.724 283.067 644.724 285H641.724C641.724 284.724 641.5 284.5 641.224 284.5V281.5Z" fill="#FAFAFA" mask="url(#path-45-inside-12_7_139)"/>
<circle cx="4.5" cy="4.5" r="3.75" transform="matrix(-1 0 0 1 642.224 318)" fill="#F4F4F5" stroke="#FAFAFA" stroke-width="1.5"/>
<path d="M654.529 204.47L653.27 209.511C653.037 210.445 653.902 211.281 654.827 211.016L659.822 209.585C660.747 209.32 661.039 208.153 660.347 207.485L656.61 203.874C655.918 203.205 654.762 203.536 654.529 204.47Z" fill="#F4F4F5" stroke="#FAFAFA" stroke-width="1.5"/>
<circle cx="4.5" cy="4.5" r="3.75" transform="matrix(-1 0 0 1 687.224 178)" fill="#F4F4F5" stroke="#FAFAFA" stroke-width="1.5"/>
<mask id="path-50-inside-13_7_139" fill="white">
<path d="M720.103 154.728C721.274 153.556 721.274 151.657 720.103 150.485L713.739 144.121C712.567 142.95 710.668 142.95 709.496 144.121L703.132 150.485C701.961 151.657 701.961 153.556 703.132 154.728L709.496 161.092C710.668 162.263 712.567 162.263 713.739 161.092L720.103 154.728Z"/>
</mask>
<path d="M720.103 154.728C721.274 153.556 721.274 151.657 720.103 150.485L713.739 144.121C712.567 142.95 710.668 142.95 709.496 144.121L703.132 150.485C701.961 151.657 701.961 153.556 703.132 154.728L709.496 161.092C710.668 162.263 712.567 162.263 713.739 161.092L720.103 154.728Z" fill="#F4F4F5"/>
<path d="M719.042 151.546L712.678 145.182L714.8 143.061L721.164 149.425L719.042 151.546ZM710.557 145.182L704.193 151.546L702.072 149.425L708.436 143.061L710.557 145.182ZM704.193 153.667L710.557 160.031L708.436 162.153L702.072 155.789L704.193 153.667ZM712.678 160.031L719.042 153.667L721.164 155.789L714.8 162.153L712.678 160.031ZM710.557 160.031C711.143 160.617 712.092 160.617 712.678 160.031L714.8 162.153C713.042 163.91 710.193 163.91 708.436 162.153L710.557 160.031ZM704.193 151.546C703.607 152.132 703.607 153.081 704.193 153.667L702.072 155.789C700.314 154.031 700.314 151.182 702.072 149.425L704.193 151.546ZM712.678 145.182C712.092 144.596 711.143 144.596 710.557 145.182L708.436 143.061C710.193 141.303 713.042 141.303 714.8 143.061L712.678 145.182ZM721.164 149.425C722.921 151.182 722.921 154.031 721.164 155.789L719.042 153.667C719.628 153.081 719.628 152.132 719.042 151.546L721.164 149.425Z" fill="#FAFAFA" mask="url(#path-50-inside-13_7_139)"/>
<path d="M723.519 229.766L691.393 260.355C687.428 264.13 685.184 269.365 685.184 274.839L685.184 350.266" stroke="#FAFAFA" stroke-width="1.5"/>
<path d="M686.307 320.625L691.936 310.875C692.417 310.042 691.816 309 690.853 309H679.595C678.633 309 678.031 310.042 678.512 310.875L684.142 320.625C684.623 321.458 685.826 321.458 686.307 320.625Z" fill="#F4F4F5" stroke="#FAFAFA" stroke-width="1.5"/>
<circle cx="4.5" cy="4.5" r="3.75" transform="matrix(-1 0 0 1 690.224 270)" fill="#F4F4F5" stroke="#FAFAFA" stroke-width="1.5"/>
<mask id="path-55-inside-14_7_139" fill="white">
<path d="M715.81 242.778C716.591 241.997 716.591 240.731 715.81 239.95L712.274 236.414C711.493 235.633 710.227 235.633 709.446 236.414L705.91 239.95C705.129 240.731 705.129 241.997 705.91 242.778L709.446 246.314C710.227 247.095 711.493 247.095 712.274 246.314L715.81 242.778Z"/>
</mask>
<path d="M715.81 242.778C716.591 241.997 716.591 240.731 715.81 239.95L712.274 236.414C711.493 235.633 710.227 235.633 709.446 236.414L705.91 239.95C705.129 240.731 705.129 241.997 705.91 242.778L709.446 246.314C710.227 247.095 711.493 247.095 712.274 246.314L715.81 242.778Z" fill="#F4F4F5"/>
<path d="M714.749 241.01L711.214 237.475L713.335 235.354L716.871 238.889L714.749 241.01ZM710.507 237.475L706.971 241.01L704.85 238.889L708.385 235.354L710.507 237.475ZM706.971 241.718L710.507 245.253L708.385 247.374L704.85 243.839L706.971 241.718ZM711.214 245.253L714.749 241.718L716.871 243.839L713.335 247.374L711.214 245.253ZM710.507 245.253C710.702 245.448 711.019 245.448 711.214 245.253L713.335 247.374C711.968 248.741 709.752 248.741 708.385 247.374L710.507 245.253ZM706.971 241.01C706.776 241.206 706.776 241.522 706.971 241.718L704.85 243.839C703.483 242.472 703.483 240.256 704.85 238.889L706.971 241.01ZM711.214 237.475C711.019 237.28 710.702 237.28 710.507 237.475L708.385 235.354C709.752 233.987 711.968 233.987 713.335 235.354L711.214 237.475ZM716.871 238.889C718.237 240.256 718.237 242.472 716.871 243.839L714.749 241.718C714.945 241.522 714.945 241.206 714.749 241.01L716.871 238.889Z" fill="#FAFAFA" mask="url(#path-55-inside-14_7_139)"/>
<path d="M43.705 0.266359L43.705 31.4669C43.705 36.7802 45.8193 41.8751 49.5812 45.6274L230.829 226.405C234.591 230.158 236.705 235.253 236.705 240.566L236.705 282.487C236.705 287.491 238.581 292.313 241.962 296.001L291.705 350.266" stroke="#FAFAFA" stroke-width="1.5" stroke-linecap="round"/>
<mask id="path-58-inside-15_7_139" fill="white">
<path d="M36 14C36 12.3431 37.3431 11 39 11H48C49.6569 11 51 12.3431 51 14V23C51 24.6569 49.6569 26 48 26H39C37.3431 26 36 24.6569 36 23V14Z"/>
</mask>
<path d="M36 14C36 12.3431 37.3431 11 39 11H48C49.6569 11 51 12.3431 51 14V23C51 24.6569 49.6569 26 48 26H39C37.3431 26 36 24.6569 36 23V14Z" fill="#F4F4F5"/>
<path d="M39 12.5H48V9.5H39V12.5ZM49.5 14V23H52.5V14H49.5ZM48 24.5H39V27.5H48V24.5ZM37.5 23V14H34.5V23H37.5ZM39 24.5C38.1716 24.5 37.5 23.8284 37.5 23H34.5C34.5 25.4853 36.5147 27.5 39 27.5V24.5ZM49.5 23C49.5 23.8284 48.8284 24.5 48 24.5V27.5C50.4853 27.5 52.5 25.4853 52.5 23H49.5ZM48 12.5C48.8284 12.5 49.5 13.1716 49.5 14H52.5C52.5 11.5147 50.4853 9.5 48 9.5V12.5ZM39 9.5C36.5147 9.5 34.5 11.5147 34.5 14H37.5C37.5 13.1716 38.1716 12.5 39 12.5V9.5Z" fill="#FAFAFA" mask="url(#path-58-inside-15_7_139)"/>
<circle cx="70.5" cy="66.5" r="3.75" fill="#F4F4F5" stroke="#FAFAFA" stroke-width="1.5"/>
<path d="M106.75 97.5166L107.974 102.566C108.201 103.502 107.33 104.332 106.407 104.06L101.421 102.595C100.498 102.324 100.215 101.155 100.911 100.491L104.673 96.9063C105.369 96.2423 106.523 96.5814 106.75 97.5166Z" fill="#F4F4F5" stroke="#FAFAFA" stroke-width="1.5"/>
<circle cx="137.5" cy="133.5" r="6.75" fill="#F4F4F5" stroke="#FAFAFA" stroke-width="1.5"/>
<mask id="path-63-inside-16_7_139" fill="white">
<path d="M171.95 164.414C172.731 163.633 173.997 163.633 174.778 164.414L178.314 167.95C179.095 168.731 179.095 169.997 178.314 170.778L174.778 174.314C173.997 175.095 172.731 175.095 171.95 174.314L168.414 170.778C167.633 169.997 167.633 168.731 168.414 167.95L171.95 164.414Z"/>
</mask>
<path d="M171.95 164.414C172.731 163.633 173.997 163.633 174.778 164.414L178.314 167.95C179.095 168.731 179.095 169.997 178.314 170.778L174.778 174.314C173.997 175.095 172.731 175.095 171.95 174.314L168.414 170.778C167.633 169.997 167.633 168.731 168.414 167.95L171.95 164.414Z" fill="#F4F4F5"/>
<path d="M173.717 165.475L177.253 169.01L179.374 166.889L175.839 163.354L173.717 165.475ZM177.253 169.718L173.717 173.253L175.839 175.374L179.374 171.839L177.253 169.718ZM173.01 173.253L169.475 169.718L167.354 171.839L170.889 175.374L173.01 173.253ZM169.475 169.01L173.01 165.475L170.889 163.354L167.354 166.889L169.475 169.01ZM169.475 169.718C169.28 169.522 169.28 169.206 169.475 169.01L167.354 166.889C165.987 168.256 165.987 170.472 167.354 171.839L169.475 169.718ZM173.717 173.253C173.522 173.448 173.206 173.448 173.01 173.253L170.889 175.374C172.256 176.741 174.472 176.741 175.839 175.374L173.717 173.253ZM177.253 169.01C177.448 169.206 177.448 169.522 177.253 169.718L179.374 171.839C180.741 170.472 180.741 168.256 179.374 166.889L177.253 169.01ZM175.839 163.354C174.472 161.987 172.256 161.987 170.889 163.354L173.01 165.475C173.206 165.28 173.522 165.28 173.717 165.475L175.839 163.354Z" fill="#FAFAFA" mask="url(#path-63-inside-16_7_139)"/>
<circle cx="202.5" cy="198.5" r="3.75" fill="#F4F4F5" stroke="#FAFAFA" stroke-width="1.5"/>
<path d="M240.501 229.413L237.673 240.311C237.432 241.242 236.272 241.562 235.587 240.887L227.563 232.99C226.877 232.315 227.179 231.15 228.107 230.894L238.958 227.894C239.886 227.638 240.743 228.482 240.501 229.413Z" fill="#F4F4F5" stroke="#FAFAFA" stroke-width="1.5"/>
<circle cx="236.5" cy="273.5" r="3.75" fill="#F4F4F5" stroke="#FAFAFA" stroke-width="1.5"/>
<path d="M254.17 303.883L255.114 308.993C255.289 309.939 254.374 310.72 253.467 310.398L248.57 308.661C247.663 308.339 247.444 307.156 248.176 306.532L252.129 303.159C252.861 302.535 253.995 302.937 254.17 303.883Z" fill="#F4F4F5" stroke="#FAFAFA" stroke-width="1.5"/>
<mask id="path-69-inside-17_7_139" fill="white">
<path d="M274.121 341.728C272.95 340.556 272.95 338.657 274.121 337.485L280.485 331.121C281.657 329.95 283.556 329.95 284.728 331.121L291.092 337.485C292.263 338.657 292.263 340.556 291.092 341.728L284.728 348.092C283.556 349.263 281.657 349.263 280.485 348.092L274.121 341.728Z"/>
</mask>
<path d="M274.121 341.728C272.95 340.556 272.95 338.657 274.121 337.485L280.485 331.121C281.657 329.95 283.556 329.95 284.728 331.121L291.092 337.485C292.263 338.657 292.263 340.556 291.092 341.728L284.728 348.092C283.556 349.263 281.657 349.263 280.485 348.092L274.121 341.728Z" fill="#F4F4F5"/>
<path d="M275.182 338.546L281.546 332.182L279.425 330.061L273.061 336.425L275.182 338.546ZM283.667 332.182L290.031 338.546L292.153 336.425L285.789 330.061L283.667 332.182ZM290.031 340.667L283.667 347.031L285.789 349.153L292.153 342.789L290.031 340.667ZM281.546 347.031L275.182 340.667L273.061 342.789L279.425 349.153L281.546 347.031ZM283.667 347.031C283.081 347.617 282.132 347.617 281.546 347.031L279.425 349.153C281.182 350.91 284.031 350.91 285.789 349.153L283.667 347.031ZM290.031 338.546C290.617 339.132 290.617 340.081 290.031 340.667L292.153 342.789C293.91 341.031 293.91 338.182 292.153 336.425L290.031 338.546ZM281.546 332.182C282.132 331.596 283.081 331.596 283.667 332.182L285.789 330.061C284.031 328.303 281.182 328.303 279.425 330.061L281.546 332.182ZM273.061 336.425C271.303 338.182 271.303 341.031 273.061 342.789L275.182 340.667C274.596 340.081 274.596 339.132 275.182 338.546L273.061 336.425Z" fill="#FAFAFA" mask="url(#path-69-inside-17_7_139)"/>
<path d="M361.705 280.266L331.531 280.266C326.202 280.266 321.093 278.14 317.339 274.358L217.808 174.115C214.088 170.369 212 165.303 212 160.024L212 30.6287C212 25.2782 209.856 20.1508 206.048 16.3927L189.705 0.266334" stroke="#FAFAFA" stroke-width="1.5"/>
<circle cx="211.5" cy="28.5" r="3.75" fill="#F4F4F5" stroke="#FAFAFA" stroke-width="1.5"/>
<path d="M210.917 111.625L208.319 107.125C207.838 106.292 208.44 105.25 209.402 105.25H214.598C215.56 105.25 216.162 106.292 215.681 107.125L213.083 111.625C212.601 112.458 211.399 112.458 210.917 111.625Z" fill="#F4F4F5" stroke="#FAFAFA" stroke-width="1.5"/>
<mask id="path-74-inside-18_7_139" fill="white">
<path d="M207.5 141C207.5 139.895 208.395 139 209.5 139H214.5C215.605 139 216.5 139.895 216.5 141V146C216.5 147.105 215.605 148 214.5 148H209.5C208.395 148 207.5 147.105 207.5 146V141Z"/>
</mask>
<path d="M207.5 141C207.5 139.895 208.395 139 209.5 139H214.5C215.605 139 216.5 139.895 216.5 141V146C216.5 147.105 215.605 148 214.5 148H209.5C208.395 148 207.5 147.105 207.5 146V141Z" fill="#F4F4F5"/>
<path d="M209.5 140.5H214.5V137.5H209.5V140.5ZM215 141V146H218V141H215ZM214.5 146.5H209.5V149.5H214.5V146.5ZM209 146V141H206V146H209ZM209.5 146.5C209.224 146.5 209 146.276 209 146H206C206 147.933 207.567 149.5 209.5 149.5V146.5ZM215 146C215 146.276 214.776 146.5 214.5 146.5V149.5C216.433 149.5 218 147.933 218 146H215ZM214.5 140.5C214.776 140.5 215 140.724 215 141H218C218 139.067 216.433 137.5 214.5 137.5V140.5ZM209.5 137.5C207.567 137.5 206 139.067 206 141H209C209 140.724 209.224 140.5 209.5 140.5V137.5Z" fill="#FAFAFA" mask="url(#path-74-inside-18_7_139)"/>
<circle cx="223.5" cy="179.5" r="6.75" fill="#F4F4F5" stroke="#FAFAFA" stroke-width="1.5"/>
<circle cx="254.5" cy="210.5" r="3.75" fill="#F4F4F5" stroke="#FAFAFA" stroke-width="1.5"/>
<path d="M281.829 233.585L283.002 238.647C283.22 239.584 282.341 240.405 281.42 240.125L276.45 238.61C275.529 238.329 275.258 237.158 275.961 236.501L279.758 232.953C280.461 232.297 281.612 232.647 281.829 233.585Z" fill="#F4F4F5" stroke="#FAFAFA" stroke-width="1.5"/>
<mask id="path-79-inside-19_7_139" fill="white">
<path d="M204 62C204 60.3432 205.343 59 207 59H216C217.657 59 219 60.3432 219 62V71C219 72.6569 217.657 74 216 74H207C205.343 74 204 72.6569 204 71V62Z"/>
</mask>
<path d="M204 62C204 60.3432 205.343 59 207 59H216C217.657 59 219 60.3432 219 62V71C219 72.6569 217.657 74 216 74H207C205.343 74 204 72.6569 204 71V62Z" fill="#F4F4F5"/>
<path d="M207 60.5H216V57.5H207V60.5ZM217.5 62V71H220.5V62H217.5ZM216 72.5H207V75.5H216V72.5ZM205.5 71V62H202.5V71H205.5ZM207 72.5C206.172 72.5 205.5 71.8284 205.5 71H202.5C202.5 73.4853 204.515 75.5 207 75.5V72.5ZM217.5 71C217.5 71.8284 216.828 72.5 216 72.5V75.5C218.485 75.5 220.5 73.4853 220.5 71H217.5ZM216 60.5C216.828 60.5 217.5 61.1716 217.5 62H220.5C220.5 59.5147 218.485 57.5 216 57.5V60.5ZM207 57.5C204.515 57.5 202.5 59.5147 202.5 62H205.5C205.5 61.1716 206.172 60.5 207 60.5V57.5Z" fill="#FAFAFA" mask="url(#path-79-inside-19_7_139)"/>
<mask id="path-81-inside-20_7_139" fill="white">
<path d="M302.121 269.728C300.95 268.556 300.95 266.657 302.121 265.485L308.485 259.121C309.657 257.95 311.556 257.95 312.728 259.121L319.092 265.485C320.263 266.657 320.263 268.556 319.092 269.728L312.728 276.092C311.556 277.263 309.657 277.263 308.485 276.092L302.121 269.728Z"/>
</mask>
<path d="M302.121 269.728C300.95 268.556 300.95 266.657 302.121 265.485L308.485 259.121C309.657 257.95 311.556 257.95 312.728 259.121L319.092 265.485C320.263 266.657 320.263 268.556 319.092 269.728L312.728 276.092C311.556 277.263 309.657 277.263 308.485 276.092L302.121 269.728Z" fill="#F4F4F5"/>
<path d="M303.182 266.546L309.546 260.182L307.425 258.061L301.061 264.425L303.182 266.546ZM311.667 260.182L318.031 266.546L320.153 264.425L313.789 258.061L311.667 260.182ZM318.031 268.667L311.667 275.031L313.789 277.153L320.153 270.789L318.031 268.667ZM309.546 275.031L303.182 268.667L301.061 270.789L307.425 277.153L309.546 275.031ZM311.667 275.031C311.081 275.617 310.132 275.617 309.546 275.031L307.425 277.153C309.182 278.91 312.031 278.91 313.789 277.153L311.667 275.031ZM318.031 266.546C318.617 267.132 318.617 268.081 318.031 268.667L320.153 270.789C321.91 269.031 321.91 266.182 320.153 264.425L318.031 266.546ZM309.546 260.182C310.132 259.596 311.081 259.596 311.667 260.182L313.789 258.061C312.031 256.303 309.182 256.303 307.425 258.061L309.546 260.182ZM301.061 264.425C299.303 266.182 299.303 269.031 301.061 270.789L303.182 268.667C302.596 268.081 302.596 267.132 303.182 266.546L301.061 264.425Z" fill="#FAFAFA" mask="url(#path-81-inside-20_7_139)"/>
<mask id="path-83-inside-21_7_139" fill="white">
<path d="M351 278C351 276.895 351.895 276 353 276H358C359.105 276 360 276.895 360 278V283C360 284.105 359.105 285 358 285H353C351.895 285 351 284.105 351 283V278Z"/>
</mask>
<path d="M351 278C351 276.895 351.895 276 353 276H358C359.105 276 360 276.895 360 278V283C360 284.105 359.105 285 358 285H353C351.895 285 351 284.105 351 283V278Z" fill="#F4F4F5"/>
<path d="M353 277.5H358V274.5H353V277.5ZM358.5 278V283H361.5V278H358.5ZM358 283.5H353V286.5H358V283.5ZM352.5 283V278H349.5V283H352.5ZM353 283.5C352.724 283.5 352.5 283.276 352.5 283H349.5C349.5 284.933 351.067 286.5 353 286.5V283.5ZM358.5 283C358.5 283.276 358.276 283.5 358 283.5V286.5C359.933 286.5 361.5 284.933 361.5 283H358.5ZM358 277.5C358.276 277.5 358.5 277.724 358.5 278H361.5C361.5 276.067 359.933 274.5 358 274.5V277.5ZM353 274.5C351.067 274.5 349.5 276.067 349.5 278H352.5C352.5 277.724 352.724 277.5 353 277.5V274.5Z" fill="#FAFAFA" mask="url(#path-83-inside-21_7_139)"/>
<path d="M-0.294982 24.7664L119.875 145.413C123.609 149.162 125.705 154.237 125.705 159.527L125.705 235.261C125.705 240.4 127.683 245.341 131.229 249.061L227.705 350.266" stroke="#FAFAFA" stroke-width="1.5"/>
<circle cx="36.5" cy="61.5" r="6.75" fill="#F4F4F5" stroke="#FAFAFA" stroke-width="1.5"/>
<path d="M107.935 127.677L109.039 132.754C109.243 133.695 108.353 134.504 107.437 134.211L102.487 132.628C101.571 132.334 101.315 131.159 102.027 130.512L105.873 127.017C106.585 126.37 107.731 126.737 107.935 127.677Z" fill="#F4F4F5" stroke="#FAFAFA" stroke-width="1.5"/>
<mask id="path-88-inside-22_7_139" fill="white">
<path d="M66.4142 98.7782C65.6332 97.9971 65.6332 96.7308 66.4142 95.9498L69.9497 92.4142C70.7308 91.6332 71.9971 91.6332 72.7782 92.4142L76.3137 95.9498C77.0948 96.7308 77.0948 97.9971 76.3137 98.7782L72.7782 102.314C71.9971 103.095 70.7308 103.095 69.9497 102.314L66.4142 98.7782Z"/>
</mask>
<path d="M66.4142 98.7782C65.6332 97.9971 65.6332 96.7308 66.4142 95.9498L69.9497 92.4142C70.7308 91.6332 71.9971 91.6332 72.7782 92.4142L76.3137 95.9498C77.0948 96.7308 77.0948 97.9971 76.3137 98.7782L72.7782 102.314C71.9971 103.095 70.7308 103.095 69.9497 102.314L66.4142 98.7782Z" fill="#F4F4F5"/>
<path d="M67.4749 97.0104L71.0104 93.4749L68.8891 91.3536L65.3536 94.8891L67.4749 97.0104ZM71.7175 93.4749L75.253 97.0104L77.3744 94.8891L73.8388 91.3536L71.7175 93.4749ZM75.253 97.7175L71.7175 101.253L73.8388 103.374L77.3744 99.8388L75.253 97.7175ZM71.0104 101.253L67.4749 97.7175L65.3536 99.8388L68.8891 103.374L71.0104 101.253ZM71.7175 101.253C71.5223 101.448 71.2057 101.448 71.0104 101.253L68.8891 103.374C70.2559 104.741 72.472 104.741 73.8388 103.374L71.7175 101.253ZM75.253 97.0104C75.4483 97.2057 75.4483 97.5223 75.253 97.7175L77.3744 99.8388C78.7412 98.472 78.7412 96.2559 77.3744 94.8891L75.253 97.0104ZM71.0104 93.4749C71.2057 93.2796 71.5223 93.2796 71.7175 93.4749L73.8388 91.3536C72.472 89.9867 70.2559 89.9867 68.8891 91.3536L71.0104 93.4749ZM65.3536 94.8891C63.9867 96.2559 63.9867 98.472 65.3536 99.8388L67.4749 97.7175C67.2796 97.5223 67.2796 97.2057 67.4749 97.0104L65.3536 94.8891Z" fill="#FAFAFA" mask="url(#path-88-inside-22_7_139)"/>
<mask id="path-90-inside-23_7_139" fill="white">
<path d="M118 166C118 164.343 119.343 163 121 163H130C131.657 163 133 164.343 133 166V175C133 176.657 131.657 178 130 178H121C119.343 178 118 176.657 118 175V166Z"/>
</mask>
<path d="M118 166C118 164.343 119.343 163 121 163H130C131.657 163 133 164.343 133 166V175C133 176.657 131.657 178 130 178H121C119.343 178 118 176.657 118 175V166Z" fill="#F4F4F5"/>
<path d="M121 164.5H130V161.5H121V164.5ZM131.5 166V175H134.5V166H131.5ZM130 176.5H121V179.5H130V176.5ZM119.5 175V166H116.5V175H119.5ZM121 176.5C120.172 176.5 119.5 175.828 119.5 175H116.5C116.5 177.485 118.515 179.5 121 179.5V176.5ZM131.5 175C131.5 175.828 130.828 176.5 130 176.5V179.5C132.485 179.5 134.5 177.485 134.5 175H131.5ZM130 164.5C130.828 164.5 131.5 165.172 131.5 166H134.5C134.5 163.515 132.485 161.5 130 161.5V164.5ZM121 161.5C118.515 161.5 116.5 163.515 116.5 166H119.5C119.5 165.172 120.172 164.5 121 164.5V161.5Z" fill="#FAFAFA" mask="url(#path-90-inside-23_7_139)"/>
<mask id="path-92-inside-24_7_139" fill="white">
<path d="M121 215C121 213.895 121.895 213 123 213H128C129.105 213 130 213.895 130 215V220C130 221.105 129.105 222 128 222H123C121.895 222 121 221.105 121 220V215Z"/>
</mask>
<path d="M121 215C121 213.895 121.895 213 123 213H128C129.105 213 130 213.895 130 215V220C130 221.105 129.105 222 128 222H123C121.895 222 121 221.105 121 220V215Z" fill="#F4F4F5"/>
<path d="M123 214.5H128V211.5H123V214.5ZM128.5 215V220H131.5V215H128.5ZM128 220.5H123V223.5H128V220.5ZM122.5 220V215H119.5V220H122.5ZM123 220.5C122.724 220.5 122.5 220.276 122.5 220H119.5C119.5 221.933 121.067 223.5 123 223.5V220.5ZM128.5 220C128.5 220.276 128.276 220.5 128 220.5V223.5C129.933 223.5 131.5 221.933 131.5 220H128.5ZM128 214.5C128.276 214.5 128.5 214.724 128.5 215H131.5C131.5 213.067 129.933 211.5 128 211.5V214.5ZM123 211.5C121.067 211.5 119.5 213.067 119.5 215H122.5C122.5 214.724 122.724 214.5 123 214.5V211.5Z" fill="#FAFAFA" mask="url(#path-92-inside-24_7_139)"/>
<circle cx="135.5" cy="253.5" r="3.75" fill="#F4F4F5" stroke="#FAFAFA" stroke-width="1.5"/>
<path d="M165.899 276.368L168.696 287.274C168.935 288.206 168.076 289.047 167.149 288.788L156.306 285.757C155.379 285.498 155.081 284.333 155.768 283.66L163.814 275.785C164.502 275.112 165.66 275.436 165.899 276.368Z" fill="#F4F4F5" stroke="#FAFAFA" stroke-width="1.5"/>
<mask id="path-96-inside-25_7_139" fill="white">
<path d="M190.414 317.778C189.633 316.997 189.633 315.731 190.414 314.95L193.95 311.414C194.731 310.633 195.997 310.633 196.778 311.414L200.314 314.95C201.095 315.731 201.095 316.997 200.314 317.778L196.778 321.314C195.997 322.095 194.731 322.095 193.95 321.314L190.414 317.778Z"/>
</mask>
<path d="M190.414 317.778C189.633 316.997 189.633 315.731 190.414 314.95L193.95 311.414C194.731 310.633 195.997 310.633 196.778 311.414L200.314 314.95C201.095 315.731 201.095 316.997 200.314 317.778L196.778 321.314C195.997 322.095 194.731 322.095 193.95 321.314L190.414 317.778Z" fill="#F4F4F5"/>
<path d="M191.475 316.01L195.01 312.475L192.889 310.354L189.354 313.889L191.475 316.01ZM195.718 312.475L199.253 316.01L201.374 313.889L197.839 310.354L195.718 312.475ZM199.253 316.718L195.718 320.253L197.839 322.374L201.374 318.839L199.253 316.718ZM195.01 320.253L191.475 316.718L189.354 318.839L192.889 322.374L195.01 320.253ZM195.718 320.253C195.522 320.448 195.206 320.448 195.01 320.253L192.889 322.374C194.256 323.741 196.472 323.741 197.839 322.374L195.718 320.253ZM199.253 316.01C199.448 316.206 199.448 316.522 199.253 316.718L201.374 318.839C202.741 317.472 202.741 315.256 201.374 313.889L199.253 316.01ZM195.01 312.475C195.206 312.28 195.522 312.28 195.718 312.475L197.839 310.354C196.472 308.987 194.256 308.987 192.889 310.354L195.01 312.475ZM189.354 313.889C187.987 315.256 187.987 317.472 189.354 318.839L191.475 316.718C191.28 316.522 191.28 316.206 191.475 316.01L189.354 313.889Z" fill="#FAFAFA" mask="url(#path-96-inside-25_7_139)"/>
<path d="M0.205011 140.766L78.9301 220.423C82.63 224.167 84.705 229.218 84.705 234.482L84.705 316.864C84.705 322.238 86.868 327.386 90.7064 331.148L109.705 349.766" stroke="#FAFAFA" stroke-width="1.5" stroke-linecap="round"/>
<circle cx="84.5" cy="245.5" r="6.75" fill="#F4F4F5" stroke="#FAFAFA" stroke-width="1.5"/>
<mask id="path-100-inside-26_7_139" fill="white">
<path d="M80 285C80 283.895 80.8955 283 82 283H87C88.1046 283 89 283.895 89 285V290C89 291.105 88.1046 292 87 292H82C80.8955 292 80 291.105 80 290V285Z"/>
</mask>
<path d="M80 285C80 283.895 80.8955 283 82 283H87C88.1046 283 89 283.895 89 285V290C89 291.105 88.1046 292 87 292H82C80.8955 292 80 291.105 80 290V285Z" fill="#F4F4F5"/>
<path d="M82 284.5H87V281.5H82V284.5ZM87.5 285V290H90.5V285H87.5ZM87 290.5H82V293.5H87V290.5ZM81.5 290V285H78.5V290H81.5ZM82 290.5C81.7239 290.5 81.5 290.276 81.5 290H78.5C78.5 291.933 80.067 293.5 82 293.5V290.5ZM87.5 290C87.5 290.276 87.2762 290.5 87 290.5V293.5C88.933 293.5 90.5 291.933 90.5 290H87.5ZM87 284.5C87.2762 284.5 87.5 284.724 87.5 285H90.5C90.5 283.067 88.933 281.5 87 281.5V284.5ZM82 281.5C80.067 281.5 78.5 283.067 78.5 285H81.5C81.5 284.724 81.7239 284.5 82 284.5V281.5Z" fill="#FAFAFA" mask="url(#path-100-inside-26_7_139)"/>
<circle cx="85.5" cy="322.5" r="3.75" fill="#F4F4F5" stroke="#FAFAFA" stroke-width="1.5"/>
<path d="M68.6953 204.47L69.9541 209.511C70.1873 210.445 69.3223 211.281 68.3973 211.016L63.4019 209.585C62.4768 209.32 62.1854 208.153 62.8774 207.485L66.6139 203.874C67.3059 203.205 68.4622 203.536 68.6953 204.47Z" fill="#F4F4F5" stroke="#FAFAFA" stroke-width="1.5"/>
<circle cx="40.5" cy="182.5" r="3.75" fill="#F4F4F5" stroke="#FAFAFA" stroke-width="1.5"/>
<mask id="path-105-inside-27_7_139" fill="white">
<path d="M3.12132 154.728C1.94975 153.556 1.94975 151.657 3.12132 150.485L9.48528 144.121C10.6569 142.95 12.5563 142.95 13.7279 144.121L20.0919 150.485C21.2635 151.657 21.2635 153.556 20.0919 154.728L13.7279 161.092C12.5563 162.263 10.6569 162.263 9.48528 161.092L3.12132 154.728Z"/>
</mask>
<path d="M3.12132 154.728C1.94975 153.556 1.94975 151.657 3.12132 150.485L9.48528 144.121C10.6569 142.95 12.5563 142.95 13.7279 144.121L20.0919 150.485C21.2635 151.657 21.2635 153.556 20.0919 154.728L13.7279 161.092C12.5563 162.263 10.6569 162.263 9.48528 161.092L3.12132 154.728Z" fill="#F4F4F5"/>
<path d="M4.18198 151.546L10.5459 145.182L8.42462 143.061L2.06066 149.425L4.18198 151.546ZM12.6673 145.182L19.0312 151.546L21.1525 149.425L14.7886 143.061L12.6673 145.182ZM19.0312 153.667L12.6673 160.031L14.7886 162.153L21.1525 155.789L19.0312 153.667ZM10.5459 160.031L4.18198 153.667L2.06066 155.789L8.42462 162.153L10.5459 160.031ZM12.6673 160.031C12.0815 160.617 11.1317 160.617 10.5459 160.031L8.42462 162.153C10.182 163.91 13.0312 163.91 14.7886 162.153L12.6673 160.031ZM19.0312 151.546C19.617 152.132 19.617 153.081 19.0312 153.667L21.1525 155.789C22.9099 154.031 22.9099 151.182 21.1525 149.425L19.0312 151.546ZM10.5459 145.182C11.1317 144.596 12.0815 144.596 12.6673 145.182L14.7886 143.061C13.0312 141.303 10.182 141.303 8.42462 143.061L10.5459 145.182ZM2.06066 149.425C0.303301 151.182 0.303301 154.031 2.06066 155.789L4.18198 153.667C3.59619 153.081 3.59619 152.132 4.18198 151.546L2.06066 149.425Z" fill="#FAFAFA" mask="url(#path-105-inside-27_7_139)"/>
<path d="M-0.294947 229.766L31.8312 260.355C35.796 264.13 38.04 269.365 38.04 274.839L38.04 350.266" stroke="#FAFAFA" stroke-width="1.5"/>
<path d="M36.9175 320.625L31.2883 310.875C30.8072 310.042 31.4086 309 32.3708 309H43.6292C44.5914 309 45.1928 310.042 44.7117 310.875L39.0825 320.625C38.6014 321.458 37.3986 321.458 36.9175 320.625Z" fill="#F4F4F5" stroke="#FAFAFA" stroke-width="1.5"/>
<circle cx="37.5" cy="274.5" r="3.75" fill="#F4F4F5" stroke="#FAFAFA" stroke-width="1.5"/>
<mask id="path-110-inside-28_7_139" fill="white">
<path d="M7.41421 242.778C6.63316 241.997 6.63317 240.731 7.41421 239.95L10.9497 236.414C11.7308 235.633 12.9971 235.633 13.7782 236.414L17.3137 239.95C18.0948 240.731 18.0948 241.997 17.3137 242.778L13.7782 246.314C12.9971 247.095 11.7308 247.095 10.9497 246.314L7.41421 242.778Z"/>
</mask>
<path d="M7.41421 242.778C6.63316 241.997 6.63317 240.731 7.41421 239.95L10.9497 236.414C11.7308 235.633 12.9971 235.633 13.7782 236.414L17.3137 239.95C18.0948 240.731 18.0948 241.997 17.3137 242.778L13.7782 246.314C12.9971 247.095 11.7308 247.095 10.9497 246.314L7.41421 242.778Z" fill="#F4F4F5"/>
<path d="M8.47487 241.01L12.0104 237.475L9.88909 235.354L6.35355 238.889L8.47487 241.01ZM12.7175 237.475L16.253 241.01L18.3744 238.889L14.8388 235.354L12.7175 237.475ZM16.253 241.718L12.7175 245.253L14.8388 247.374L18.3744 243.839L16.253 241.718ZM12.0104 245.253L8.47487 241.718L6.35355 243.839L9.88909 247.374L12.0104 245.253ZM12.7175 245.253C12.5223 245.448 12.2057 245.448 12.0104 245.253L9.88909 247.374C11.2559 248.741 13.472 248.741 14.8388 247.374L12.7175 245.253ZM16.253 241.01C16.4483 241.206 16.4483 241.522 16.253 241.718L18.3744 243.839C19.7412 242.472 19.7412 240.256 18.3744 238.889L16.253 241.01ZM12.0104 237.475C12.2057 237.28 12.5223 237.28 12.7175 237.475L14.8388 235.354C13.472 233.987 11.2559 233.987 9.88909 235.354L12.0104 237.475ZM6.35355 238.889C4.98672 240.256 4.98672 242.472 6.35355 243.839L8.47487 241.718C8.27961 241.522 8.27961 241.206 8.47487 241.01L6.35355 238.889Z" fill="#FAFAFA" mask="url(#path-110-inside-28_7_139)"/>
</g>
<defs>
<clipPath id="clip0_7_139">
<rect width="723" height="350" fill="white"/>
</clipPath>
</defs>
</svg>
